# xmcd
#
# Track frame offsets: 
#        187
#        9375
#        21002
#        33312
#        46072
#        59792
#        69770
#        79150
#        92727
#        109567
#        125205
#        138175
#
# Disc length: 1987 seconds
#
# Revision: 2
# Processed by: cddbd v1.5.1PL2 Copyright (c) Steve Scherf et al.
# Submitted via: ExactAudioCopy v0.95b3
#
DISCID=9507c10c
DTITLE=Patsy Cline - 12 Greatest Hits
DYEAR=1988
DGENRE=Country
TTITLE0=Walkin' After Midnight
TTITLE1=Sweet Dreams (Of You)
TTITLE2=Crazy
TTITLE3=I Fall To Pieces
TTITLE4=So Wrong
TTITLE5=Strange
TTITLE6=Back In Baby's Arms
TTITLE7=She's Got You
TTITLE8=Faded Love
TTITLE9=Why Can't He Be You
TTITLE10=You're Stronger Than Me
TTITLE11=Leavin' On Your Mind
EXTD=MCA Records MCAD-12
EXTT0=Don Hecht - Alan Block
EXTT1=Don Gibson
EXTT2=Willie Nelson
EXTT3=Harlan Howard - Hank Cochran
EXTT4=Carl Perkins
EXTT5=Mel Tillis - Fred Burch
EXTT6=Bob Montgomery
EXTT7=Hank Cochran
EXTT8=John Wills - Bob Wills
EXTT9=Hank Cochran
EXTT10=Hank Cochran - Jimmy Key
EXTT11=Wayne Walker
PLAYORDER=
